# AST/ASF file generated using VICON BodyLanguage
# -----------------------------------------------
:version 1.10
:name VICON
:units
  mass 1.0
  length 0.45
  angle deg
:documentation
   .ast/.asf automatically generated from VICON data using
   VICON BodyBuilder and BodyLanguage model FoxedUp or BRILLIANT.MOD
:root
   order TX TY TZ RX RY RZ
   axis XYZ
   position 0 0 0  
   orientation 0 0 0 
:bonedata
  begin
     id 1 
     name lhipjoint
     direction 0.561145 -0.797705 0.220866 
     length 2.46425 
     axis 0 0 0  XYZ
  end
  begin
     id 2 
     name lfemur
     direction 0.34202 -0.939693 0  
     length 7.95556  
     axis 0 0 20  XYZ
    dof rx ry rz
    limits (-160.0 20.0)
           (-70.0 70.0)
           (-60.0 70.0)
  end
  begin
     id 3 
     name ltibia
     direction 0.34202 -0.939693 0   
     length 7.9832   
     axis 0 0 20   XYZ
    dof rx
    limits (-10.0 170.0)
  end
  begin
     id 4 
     name lfoot
     direction 0.0723927 -0.198897 0.977343   
     length 2.23085   
     axis -90 7.62852e-016 20   XYZ
    dof rx rz
    limits (-45.0 90.0)
           (-70.0 20.0)
  end
  begin
     id 5 
     name ltoes
     direction 1.53826e-011 -4.21988e-011 1   
     length 1.12127   
     axis -90 7.62852e-016 20   XYZ
    dof rx
    limits (-90.0 20.0)
  end
  begin
     id 6 
     name rhipjoint
     direction -0.610499 -0.763299 0.21134   
     length 2.57533  
     axis 0 0 0  XYZ 
  end
  begin
     id 7 
     name rfemur
     direction -0.34202 -0.939693 0   
     length 8.65257   
     axis 0 0 -20   XYZ
    dof rx ry rz
    limits (-160.0 20.0)
           (-70.0 70.0)
           (-70.0 60.0)
  end
  begin
     id 8 
     name rtibia
     direction -0.342021 -0.939692 0   
     length 7.37807   
     axis 0 0 -20   XYZ
    dof rx
    limits (-10.0 170.0)
 end
 begin
     id 9 
     name rfoot
     direction -0.0239304 -0.0543852 0.998233   
     length 1.87018  
     axis -90 -7.62852e-016 -20   XYZ
    dof rx rz
    limits (-45.0 90.0)
           (-20.0 70.0)
  end
  begin
     id 10 
     name rtoes
     direction -1.53584e-011 -4.2242e-011 1   
     length 0.951568   
     axis -90 -7.62852e-016 -20   XYZ
    dof rx
    limits (-90.0 20.0)
  end
  begin
     id 11 
     name lowerback
     direction 0.00322089 0.999033 0.0438587   
     length 2.07568   
     axis 0 0 0   XYZ
    dof rx ry rz
    limits (-20.0 45.0)
           (-30.0 30.0)
           (-30.0 30.0)
  end
  begin
     id 12 
     name upperback
     direction -0.00321932 0.999732 -0.0229403   
     length 2.06253   
     axis 0 0 0   XYZ
    dof rx ry rz
    limits (-20.0 45.0)
           (-30.0 30.0)
           (-30.0 30.0)
  end
  begin
     id 13 
     name thorax
     direction -0.00537537 0.998955 -0.0453918   
     length 2.06975   
     axis 0 0 0   XYZ
    dof rx ry rz
    limits (-20.0 45.0)
           (-30.0 30.0)
           (-30.0 30.0)
  end
  begin
     id 14 
     name lowerneck
     direction -0.00013604 0.994111 0.108363   
     length 1.50836   
     axis 0 0 0   XYZ
    dof rx ry rz
    limits (-20.0 45.0)
           (-30.0 30.0)
           (-30.0 30.0)
  end
  begin
     id 15 
     name upperneck
     direction 0.0397262 0.983859 -0.174482   
     length 1.53037   
     axis 0 0 0   XYZ
    dof rx ry rz
    limits (-20.0 45.0)
           (-30.0 30.0)
           (-30.0 30.0)
  end
  begin
     id 16
     name head
     direction 0.0109991 0.997082 -0.0755378  
     length 1.56928  
     axis 0 0 0   XYZ
    dof rx ry rz
    limits (-20.0 45.0)
           (-30.0 30.0)
           (-30.0 30.0)
  end
  begin
     id 17 
     name lclavicle
     direction 0.964749 0.254 -0.068874  
     length 3.26503  
     axis 0 0 0   XYZ
    dof ry rz
    limits (-20.0 10.0)
           (0.0 20.0)
  end
  begin
     id 18 
     name lhumerus
     direction 1 -4.48941e-011 -2.05079e-027   
     length 5.68236   
     axis 180 -30 -90   XYZ
    dof rx ry rz
    limits (-60.0 90.0)
           (-90.0 90.0)
           (-90.0 90.0)
  end
  begin
     id 19
     name lradius
     direction 1 -4.48956e-011 6.2882e-027   
     length 3.17112   
     axis 180 -30 -90   XYZ
    dof rx
    limits (-10.0 170.0)
  end
  begin
     id 20
     name lwrist
     direction 1 -4.49014e-011 1.73219e-026   
     length 1.58556   
     axis -1.04724e-014 90 90   XYZ
    dof ry
    limits (-180.0 0.0)
 end
  begin
     id 21 
     name lhand
     direction 1 -4.49312e-011 3.46438e-026   
     length 0.632691   
     axis -2.21057e-014 90 90   XYZ
    dof rx rz
    limits (-90.0 90.0)
           (-45.0 45.0)
  end
  begin
     id 22 
     name lfingers
     direction 1 -4.48894e-011 6.92876e-026   
     length 0.510091   
     axis -4.42114e-014 90 90   XYZ
    dof rx
    limits (0.0 90.0)
  end
  begin
     id 23
     name lthumb
     direction 0.707107 -6.34705e-011 0.707107   
     length 0.732392   
     axis -90 45 2.85299e-015   XYZ
    dof rx rz
    limits (-45.0 45.0)
           (-45.0 45.0)
  end
  begin
     id 24 
     name rclavicle
     direction -0.954374 0.280496 -0.102435   
     length 3.25419  
     axis 0 0 0   XYZ 
    dof ry rz
    limits (-10.0 20.0)
           (-20.0 0.0)
  end
  begin
     id 25 
     name rhumerus
     direction -1 -4.48994e-011 -1.07204e-017  
     length 5.8712   
     axis 180 30 90   XYZ
    dof rx ry rz
    limits (-90.0 60.0)
           (-90.0 90.0)
           (-90.0 90.0)
  end
  begin
     id 26 
     name rradius
     direction -1 -4.48972e-011 5.89292e-027   
     length 3.37589   
     axis 180 30 90   XYZ
    dof rx
    limits (-10.0 170.0)
  end
  begin
     id 27 
     name rwrist
     direction -1 -4.48942e-011 1.73219e-026   
     length 1.68794   
     axis -1.04724e-014 -90 -90   XYZ
    dof ry
    limits (-180.0 0.0)
  end
  begin
     id 28
     name rhand
     direction -1 -4.48514e-011 3.46438e-026   
     length 0.603257   
     axis -2.21057e-014 -90 -90   XYZ
    dof rx rz
    limits (-90.0 90.0)
           (-45.0 45.0)
  end
  begin
     id 29
     name rfingers
     direction -1 -4.50028e-011 6.92876e-026   
     length 0.486362   
     axis -4.42114e-014 -90 -90   XYZ
    dof rx
    limits (0.0 90.0)
  end
  begin
     id 30
     name rthumb
     direction -0.707107 -6.34926e-011 0.707107   
     length 0.698321   
     axis -90 -45 -2.85299e-015   XYZ
    dof rx rz
    limits (-45.0 45.0)
           (-45.0 45.0)
  end
:hierarchy
  begin
    root lhipjoint rhipjoint lowerback
    lhipjoint lfemur
    lfemur ltibia
    ltibia lfoot
    lfoot ltoes
    rhipjoint rfemur
    rfemur rtibia
    rtibia rfoot
    rfoot rtoes
    lowerback upperback
    upperback thorax
    thorax lowerneck lclavicle rclavicle
    lowerneck upperneck
    upperneck head
    lclavicle lhumerus
    lhumerus lradius
    lradius lwrist
    lwrist lhand lthumb
    lhand lfingers
    rclavicle rhumerus
    rhumerus rradius
    rradius rwrist
    rwrist rhand rthumb
    rhand rfingers
  end

#!OML:ASF I:\Segmentation\Patient Classification 1\Patient 1\Session 1\Patient1.ASF
:FULLY-SPECIFIED
:DEGREES
2697
root 20.363 15.8079 -0.435922 -564.078 -91.495 193.313
lowerback 12.4223 1.1632 -0.198755
upperback 10.0163 0.941696 1.0412
thorax 3.54205 0.186204 1.09757
lowerneck -15.6574 -3.82648 -1.69292
upperneck 6.23229 -5.26459 4.48648
head 4.56262 -2.3587 1.22208
rclavicle -8.34896e-015 -8.34896e-015
rhumerus 8.88512 18.4541 -92.4473
rradius 98.3437
rwrist -55.9858
rhand -37.1469 -1.37086
rfingers 7.12502
rthumb -10.2163 -31.1028
lclavicle -8.34896e-015 -8.34896e-015
lhumerus 18.5444 -25.2889 77.6159
lradius 100.043
lwrist 6.45453
lhand -27.2263 29.8058
lfingers 7.12502
lthumb -0.638653 59.7846
rfemur -38.0673 -7.57537 17.0982
rtibia 60.6671
rfoot -3.06538 3.24126
rtoes 42.9472
lfemur -39.8112 10.5829 -18.9628
ltibia 63.7143
lfoot -14.6022 5.05437
ltoes 0.51179
2698
root 20.3636 15.8073 -0.437081 -565.615 -91.4726 194.874
lowerback 12.4819 1.17657 -0.214073
upperback 9.94919 0.963737 1.02176
thorax 3.43739 0.199773 1.08284
lowerneck -15.6445 -3.82529 -1.66144
upperneck 6.34565 -5.27 4.45859
head 4.59436 -2.36021 1.20723
rclavicle -5.26779e-015 3.57812e-015
rhumerus 9.01106 19.0045 -92.6181
rradius 98.4342
rwrist -55.8533
rhand -37.348 -1.34806
rfingers 7.12502
rthumb -10.4104 -31.0703
lclavicle -5.26779e-015 3.57812e-015
lhumerus 18.4978 -25.8273 77.6794
lradius 99.7492
lwrist 6.55602
lhand -27.0647 29.7336
lfingers 7.12502
lthumb -0.482537 59.7128
rfemur -38.1046 -7.53658 17.0732
rtibia 60.6754
rfoot -3.07737 3.22813
rtoes 42.9278
lfemur -39.828 10.6165 -18.9915
ltibia 63.7099
lfoot -14.6172 5.03745
ltoes 0.522644
2699
root 20.3644 15.8074 -0.438229 -567.01 -91.4599 196.287
lowerback 12.5834 1.19163 -0.254108
upperback 9.85968 0.986718 1.02368
thorax 3.28536 0.21249 1.10351
lowerneck -15.6409 -3.83046 -1.65025
upperneck 6.49623 -5.27989 4.42213
head 4.63955 -2.36409 1.19211
rclavicle 9.93923e-017 -7.95139e-015
rhumerus 9.11358 19.7408 -92.7151
rradius 98.6421
rwrist -55.7217
rhand -37.4526 -1.4091
rfingers 7.12502
rthumb -10.5113 -31.1263
lclavicle 9.93923e-017 -7.95139e-015
lhumerus 18.4669 -26.5307 77.6629
lradius 99.3792
lwrist 6.58046
lhand -26.7104 29.5701
lfingers 7.12502
lthumb -0.140402 59.5497
rfemur -38.134 -7.50632 17.0488
rtibia 60.6854
rfoot -3.09626 3.21393
rtoes 42.8535
lfemur -39.8368 10.6433 -19.0199
ltibia 63.7004
lfoot -14.6199 5.02675
ltoes 0.514154
2700
root 20.3654 15.8079 -0.43897 -567.99 -91.4657 197.274
lowerback 12.6769 1.20219 -0.325652
upperback 9.78782 0.998632 1.06041
thorax 3.15591 0.216122 1.17935
lowerneck -15.657 -3.83679 -1.67767
upperneck 6.64677 -5.28202 4.37573
head 4.68829 -2.36556 1.1804
rclavicle -1.19271e-015 -9.14409e-015
rhumerus 9.27062 20.6881 -92.6883
rradius 98.9399
rwrist -55.5663
rhand -37.3995 -1.52718
rfingers 7.12502
rthumb -10.4601 -31.247
lclavicle -1.19271e-015 -9.14409e-015
lhumerus 18.5106 -27.3568 77.5549
lradius 98.9254
lwrist 6.53778
lhand -26.2257 29.3525
lfingers 7.12502
lthumb 0.327739 59.332
rfemur -38.1512 -7.50109 17.0259
rtibia 60.6993
rfoot -3.11369 3.19694
rtoes 42.7451
lfemur -39.8356 10.6506 -19.0478
ltibia 63.6863
lfoot -14.6107 5.02797
ltoes 0.484978
2701
root 20.3666 15.8083 -0.439226 -568.489 -91.4815 197.775
lowerback 12.728 1.20711 -0.411311
upperback 9.74994 0.998904 1.12212
thorax 3.08534 0.211133 1.29098
lowerneck -15.6866 -3.83996 -1.73253
upperneck 6.76738 -5.27238 4.3233
head 4.73005 -2.36284 1.17226
rclavicle 4.37326e-015 -5.96354e-015
rhumerus 9.52525 21.83 -92.5321
rradius 99.2944
rwrist -55.4025
rhand -37.1942 -1.6525
rfingers 7.12502
rthumb -10.262 -31.3822
lclavicle 4.37326e-015 -5.96354e-015
lhumerus 18.6708 -28.2892 77.3269
lradius 98.3722
lwrist 6.4386
lhand -25.6424 29.1467
lfingers 7.12502
lthumb 0.891164 59.1246
rfemur -38.1641 -7.51669 17.0092
rtibia 60.7182
rfoot -3.12073 3.17912
rtoes 42.6342
lfemur -39.8323 10.6423 -19.0703
ltibia 63.6713
lfoot -14.5996 5.03554
ltoes 0.48148
2702
root 20.3676 15.8084 -0.439419 -568.614 -91.4902 197.902
lowerback 12.742 1.20985 -0.485296
upperback 9.73476 0.995802 1.18643
thorax 3.05934 0.204166 1.39969
lowerneck -15.7148 -3.83942 -1.78834
upperneck 6.84763 -5.25649 4.27386
head 4.75893 -2.35776 1.1661
rclavicle 1.19271e-015 5.96354e-015
rhumerus 9.8588 23.1026 -92.29
rradius 99.6796
rwrist -55.2723
rhand -36.9053 -1.71703
rfingers 7.12502
rthumb -9.98325 -31.4603
lclavicle 1.19271e-015 5.96354e-015
lhumerus 18.9539 -29.3268 76.9506
lradius 97.7224
lwrist 6.29059
lhand -25.0149 29.0195
lfingers 7.12502
lthumb 1.49721 58.994
rfemur -38.18 -7.53294 17.0055
rtibia 60.7394
rfoot -3.11232 3.16724
rtoes 42.558
lfemur -39.8338 10.6356 -19.0794
ltibia 63.6601
lfoot -14.5943 5.03898
ltoes 0.518687
2703
root 20.3683 15.808 -0.439987 -568.489 -91.4849 197.778
lowerback 12.7371 1.21498 -0.532817
upperback 9.73341 0.997563 1.23726
thorax 3.0589 0.200918 1.47929
lowerneck -15.732 -3.83849 -1.8263
upperneck 6.88492 -5.24381 4.23581
head 4.77268 -2.35404 1.16089
rclavicle -1.59028e-015 -4.77083e-015
rhumerus 10.238 24.3973 -92.0149
rradius 100.058
rwrist -55.2442
rhand -36.7052 -1.69966
rfingers 7.12502
rthumb -9.79021 -31.4521
lclavicle -1.59028e-015 -4.77083e-015
lhumerus 19.3551 -30.4516 76.4179
lradius 97.0109
lwrist 6.11465
lhand -24.5965 29.0199
lfingers 7.12502
lthumb 1.90132 58.9912
rfemur -38.1922 -7.53904 17.0156
rtibia 60.7569
rfoot -3.09048 3.16505
rtoes 42.5341
lfemur -39.8355 10.6404 -19.0719
ltibia 63.6549
lfoot -14.595 5.0321
ltoes 0.579447
2704
root 20.3688 15.8075 -0.440879 -568.092 -91.476 197.375
lowerback 12.715 1.22173 -0.546577
upperback 9.75182 1.00341 1.26868
thorax 3.08958 0.201277 1.51961
lowerneck -15.7509 -3.84108 -1.84345
upperneck 6.88618 -5.24125 4.21619
head 4.77582 -2.35423 1.15744
rclavicle -5.26779e-015 7.15625e-015
rhumerus 10.6434 25.559 -91.7524
rradius 100.387
rwrist -55.4195
rhand -36.7571 -1.65749
rfingers 7.12502
rthumb -9.84026 -31.4075
lclavicle -5.26779e-015 7.15625e-015
lhumerus 19.8625 -31.5786 75.764
lradius 96.3067
lwrist 5.94491
lhand -24.7635 29.1741
lfingers 7.12502
lthumb 1.74001 59.1467
rfemur -38.1907 -7.54235 17.0338
rtibia 60.7646
rfoot -3.06506 3.17255
rtoes 42.5519
lfemur -39.8327 10.6496 -19.0532
ltibia 63.6553
lfoot -14.5923 5.01963
ltoes 0.650649
2705
root 20.369 15.8071 -0.441811 -567.359 -91.4787 196.629
lowerback 12.6698 1.22876 -0.538146
upperback 9.79789 1.00975 1.29132
thorax 3.16289 0.202152 1.53869
lowerneck -15.7999 -3.8501 -1.85092
upperneck 6.87171 -5.2502 4.20955
head 4.77937 -2.35893 1.1551
rclavicle 6.75868e-015 -3.57812e-015
rhumerus 11.0381 26.4195 -91.5394
rradius 100.646
rwrist -55.8397
rhand -36.9729 -1.69026
rfingers 7.12502
rthumb -10.0485 -31.4304
lclavicle 6.75868e-015 -3.57812e-015
lhumerus 20.4211 -32.5463 75.1046
lradius 95.7116
lwrist 5.84329
lhand -25.6146 29.4913
lfingers 7.12502
lthumb 0.917945 59.4691
rfemur -38.172 -7.55541 17.052
rtibia 60.7598
rfoot -3.04344 3.18689
rtoes 42.5921
lfemur -39.8255 10.6506 -19.0322
ltibia 63.6588
lfoot -14.5762 5.01353
ltoes 0.687306
2706
root 20.3689 15.8072 -0.442596 -566.355 -91.4994 195.611
lowerback 12.6002 1.23671 -0.528354
upperback 9.86701 1.0157 1.31932
thorax 3.27404 0.201761 1.5631
lowerneck -15.8892 -3.86472 -1.85918
upperneck 6.85962 -5.26626 4.20274
head 4.79031 -2.36665 1.15152
rclavicle -2.98177e-015 1.07344e-014
rhumerus 11.3455 26.8705 -91.415
rradius 100.853
rwrist -56.4044
rhand -37.0503 -1.82677
rfingers 7.12502
rthumb -10.1232 -31.5632
lclavicle -2.98177e-015 1.07344e-014
lhumerus 20.923 -33.1906 74.604
lradius 95.3198
lwrist 5.89568
lhand -26.808 29.879
lfingers 7.12502
lthumb -0.234626 59.8586
rfemur -38.1441 -7.58385 17.066
rtibia 60.7457
rfoot -3.02831 3.20008
rtoes 42.6364
lfemur -39.8191 10.6367 -19.0148
ltibia 63.6636
lfoot -14.5501 5.01884
ltoes 0.657326
2707
root 20.3685 15.8073 -0.443228 -565.205 -91.5333 194.456
lowerback 12.5162 1.24214 -0.519803
upperback 9.93977 1.0181 1.34827
thorax 3.39699 0.199391 1.58977
lowerneck -16.0006 -3.87858 -1.86678
upperneck 6.85867 -5.28188 4.19774
head 4.80827 -2.37357 1.14798
rclavicle -8.44835e-015 -3.57812e-015
rhumerus 11.4817 26.9241 -91.4178
rradius 101.04
rwrist -56.9023
rhand -36.7316 -1.99322
rfingers 7.12502
rthumb -9.8157 -31.7444
lclavicle -8.44835e-015 -3.57812e-015
lhumerus 21.2473 -33.4128 74.3896
lradius 95.1663
lwrist 6.10249
lhand -27.7023 30.0459
lfingers 7.12502
lthumb -1.09842 60.0228
rfemur -38.1233 -7.62324 17.0776
rtibia 60.73
rfoot -3.02348 3.20444
rtoes 42.6618
lfemur -39.8228 10.6106 -19.0013
ltibia 63.6703
lfoot -14.5247 5.02822
ltoes 0.582825
2708
root 20.3677 15.8071 -0.443881 -563.994 -91.571 193.253
lowerback 12.4469 1.23951 -0.504398
upperback 9.99017 1.01244 1.36351
thorax 3.48865 0.194816 1.5987
lowerneck -16.1095 -3.88345 -1.86292
upperneck 6.87469 -5.2899 4.20486
head 4.83101 -2.37543 1.14696
rclavicle 1.46107e-014 7.95139e-015
rhumerus 11.42 26.7159 -91.5401
rradius 101.23
rwrist -57.0937
rhand -35.9766 -2.06395
rfingers 7.12502
rthumb -9.08722 -31.8482
lclavicle 1.46107e-014 7.95139e-015
lhumerus 21.3135 -33.2231 74.4955
lradius 95.229
lwrist 6.3564
lhand -27.6838 29.7084
lfingers 7.12502
lthumb -1.08054 59.6855
rfemur -38.1207 -7.66581 17.0918
rtibia 60.7215
rfoot -3.02662 3.2029
rtoes 42.6603
lfemur -39.842 10.5802 -18.9882
ltibia 63.6803
lfoot -14.5053 5.03097
ltoes 0.492278
2709
root 20.3666 15.8064 -0.444689 -562.793 -91.6044 192.069
lowerback 12.4264 1.22763 -0.48005
upperback 9.99797 0.998791 1.35683
thorax 3.50905 0.189313 1.57961
lowerneck -16.1944 -3.87458 -1.83488
upperneck 6.90609 -5.28693 4.22468
head 4.8542 -2.37043 1.14732
rclavicle -7.65321e-015 -6.36111e-015
rhumerus 11.2129 26.4289 -91.7166
rradius 101.401
rwrist -56.8269
rhand -35.0123 -1.91052
rfingers 7.12502
rthumb -8.15664 -31.7331
lclavicle -7.65321e-015 -6.36111e-015
lhumerus 21.1255 -32.7538 74.8455
lradius 95.4575
lwrist 6.54904
lhand -26.6252 28.9037
lfingers 7.12502
lthumb -0.0581179 58.8834
rfemur -38.1367 -7.70552 17.1125
rtibia 60.725
rfoot -3.03371 3.20302
rtoes 42.639
lfemur -39.8741 10.5525 -18.9721
ltibia 63.6942
lfoot -14.494 5.02008
ltoes 0.42383
2710
root 20.3655 15.8055 -0.445568 -561.725 -91.6308 191.023
lowerback 12.4664 1.21068 -0.449581
upperback 9.96226 0.982347 1.32842
thorax 3.45057 0.18529 1.53366
lowerneck -16.2428 -3.85528 -1.77686
upperneck 6.94082 -5.27766 4.25074
head 4.87189 -2.36149 1.14599
rclavicle 3.08116e-015 7.95139e-015
rhumerus 10.9538 26.1845 -91.8724
rradius 101.515
rwrist -56.1555
rhand -34.1883 -1.54718
rfingers 7.12502
rthumb -7.36134 -31.3991
lclavicle 3.08116e-015 7.95139e-015
lhumerus 20.7764 -32.1801 75.2945
lradius 95.7923
lwrist 6.60987
lhand -24.9319 27.9359
lfingers 7.12502
lthumb 1.57733 57.9098
rfemur -38.1617 -7.73861 17.1369
rtibia 60.7379
rfoot -3.04447 3.20718
rtoes 42.6036
lfemur -39.9102 10.5302 -18.9544
ltibia 63.7103
lfoot -14.4917 4.99608
ltoes 0.422336
